<svg width="65" height="65" viewBox="0 0 65 65" version="1.1" xmlns="http://www.w3.org/2000/svg" xmlns:xlink="http://www.w3.org/1999/xlink">
<title>Group 4</title>
<desc>Created using Figma</desc>
<g id="Canvas" transform="translate(6576 -2387)">
<rect x="-6576" y="2387" width="65" height="65" fill="#E5E5E5"/>
<g id="Group 4">
<g id="Rectangle">
<use xlink:href="#path0_fill" transform="translate(-6576 2387)" fill="#C4C4C4" fill-opacity="0.01"/>
</g>
<g id="Union">
<use xlink:href="#path1_fill" transform="translate(-6571 2390)" fill="#0088FF"/>
</g>
</g>
</g>
<defs>
<path id="path0_fill" d="M 0 0L 65 0L 65 65L 0 65L 0 0Z"/>
<path id="path1_fill" fill-rule="evenodd" d="M 19.8203 0.341553L 15.7607 4.40137L 14.0605 2.70142C 13.8203 2.46143 13.5405 2.34155 13.2207 2.34155C 12.8872 2.35474 12.6006 2.48145 12.3604 2.71875C 12.1338 2.94556 12.0205 3.21875 12.0205 3.53882L 12.0205 8.66138C 12.0205 8.81055 12.0449 8.94922 12.0942 9.07788C 12.1509 9.22534 12.2393 9.35962 12.3604 9.48145C 12.6006 9.71875 12.8872 9.84668 13.2207 9.86011L 18.3203 9.84155C 18.6406 9.84155 18.9141 9.72681 19.1406 9.5C 19.3804 9.26001 19.5073 8.97485 19.5205 8.64136C 19.5127 8.44971 19.4702 8.27515 19.3921 8.11841C 19.334 8.00269 19.2568 7.89648 19.1606 7.80005L 17.4604 6.09888L 21.5205 2.03882C 21.7471 1.81348 21.8672 1.53467 21.8804 1.20142C 21.8672 0.868164 21.7407 0.581543 21.5005 0.341553C 21.3848 0.22583 21.2568 0.13916 21.1172 0.0822754C 20.9829 0.0275879 20.8374 0 20.6807 0C 20.5322 0 20.395 0.0209961 20.2686 0.0627441C 20.2383 0.0727539 20.209 0.0839844 20.1802 0.0961914C 20.0474 0.153076 19.9272 0.234863 19.8203 0.341553ZM 9.5 12.3416C 9.27344 12.1147 8.99316 12.0081 8.66016 12.0215L 3.56006 12.0002C 3.24023 12.0002 2.95996 12.1201 2.72021 12.3601C 2.57715 12.5024 2.47656 12.6597 2.41846 12.8315C 2.37939 12.9482 2.35986 13.0715 2.35986 13.2014C 2.35986 13.3533 2.38721 13.4958 2.44141 13.6292C 2.50098 13.7769 2.59375 13.9133 2.72021 14.0388L 4.41992 15.7402L 0.359863 19.8C 0.120117 20.0388 0 20.3335 0 20.6802C 0 20.8137 0.0195312 20.9392 0.059082 21.0564C 0.114258 21.2202 0.208008 21.3682 0.339844 21.5002C 0.580078 21.7402 0.866699 21.8682 1.2002 21.8801C 1.5332 21.8682 1.81982 21.7402 2.06006 21.5002L 6.12012 17.4402L 7.81982 19.1414C 7.96484 19.2864 8.13135 19.3872 8.31982 19.4443C 8.42627 19.4768 8.53955 19.4954 8.66016 19.5002C 8.97998 19.5002 9.25977 19.3801 9.5 19.1414C 9.74023 18.9014 9.85986 18.6201 9.85986 18.3L 9.85986 13.2188C 9.85986 13.1274 9.85156 13.04 9.83496 12.9565C 9.78857 12.7227 9.67725 12.5183 9.5 12.3416ZM 33.0405 21.2007L 30.5605 12.9822C 30.2139 11.7007 29.4404 10.7275 28.2407 10.0608C 28.1738 10.0217 28.1069 9.98486 28.0391 9.9502C 27.876 9.86694 27.71 9.79688 27.5405 9.7395C 26.5674 9.38086 25.5605 9.354 24.5205 9.66211C 23.2007 10.0474 22.2407 10.8262 21.6406 12.0007C 21.0005 13.1621 20.8457 14.3674 21.1807 15.6194L 21.1606 15.6194C 21.1685 15.6323 21.1753 15.6455 21.1807 15.6592C 21.1885 15.6777 21.1938 15.697 21.1973 15.717C 21.1997 15.7312 21.2007 15.7456 21.2007 15.7607L 27.0806 35.2395C 26.0405 34.4407 25.0405 33.6675 24.0806 32.9194C 22.2939 31.5073 20.7271 30.7942 19.3804 30.782C 17.9937 30.7395 16.8203 31.1794 15.8604 32.0994C 14.8604 33.0474 14.3604 34.1875 14.3604 35.5208C 14.334 36.8674 14.7803 38.0261 15.7007 39.0007L 24.1006 47.7993C 25.6606 49.7341 27.3872 51.094 29.2803 51.8809C 31.3604 52.7742 32.814 54.094 33.6406 55.8408C 33.6406 55.8674 33.647 55.894 33.6606 55.9194C 33.7271 56.1729 33.7803 56.4275 33.8203 56.6794C 33.8379 56.7861 33.853 56.894 33.8662 57.0032C 33.8804 57.1243 33.8921 57.2468 33.9009 57.3708C 33.9126 57.5376 33.9199 57.707 33.9224 57.8792C 33.9238 57.9978 33.9233 58.1179 33.9204 58.2395C 33.9204 58.343 33.9331 58.447 33.958 58.551C 33.9849 58.6611 34.0254 58.7712 34.0806 58.8809C 34.2407 59.094 34.4272 59.2527 34.6406 59.3594C 34.854 59.4661 35.0674 59.5208 35.2803 59.5208L 49.2407 59.5208C 49.4536 59.5208 49.667 59.4661 49.8804 59.3594C 50.0938 59.2527 50.2803 59.094 50.4404 58.8809C 50.5474 58.6675 50.6006 58.4526 50.6006 58.2395L 50.6006 57.9194C 50.4937 52.9607 50.8271 49.834 51.6006 48.5393C 52.9604 46.0342 53.9473 44.2195 54.5605 43.0994C 55.2139 41.8462 55.3672 39.594 55.0205 36.3408C 54.7271 33.3674 54.4473 31.094 54.1807 29.5208C 53.8457 27.5728 53.187 26.2275 52.2007 25.4822C 51.0674 24.5862 49.814 24.2527 48.4404 24.4822C 48.0806 24.5474 47.7739 24.6274 47.5205 24.7195C 47.1738 23.7087 46.5073 22.854 45.5205 22.1621C 44.4673 21.3728 43.2539 21.094 41.8804 21.3208L 41.7207 21.3594C 41.5439 21.3884 41.3735 21.4255 41.2095 21.4709C 40.9888 21.532 40.7793 21.6082 40.5806 21.7007C 40.5137 21.7395 40.4536 21.7742 40.4004 21.7993C 40.0938 21.3887 39.7139 21.0208 39.2607 20.7007C 38.1538 19.9141 36.9473 19.6328 35.6406 19.8594C 34.5874 20.0474 33.7207 20.4927 33.0405 21.2007ZM 35.5405 22.7009L 35.5405 22.7195C 35.647 22.6675 35.7607 22.6274 35.8804 22.5996L 36.0205 22.5608L 36.0405 22.5608L 36.0566 22.5581L 36.082 22.5486L 36.1006 22.5396C 36.7271 22.4355 37.2671 22.5676 37.7207 22.9409C 38.2007 23.2742 38.4873 23.7341 38.5806 24.3208L 40.1206 33.0608C 40.1738 33.4355 40.3604 33.7341 40.6807 33.9609C 40.9736 34.1621 41.3071 34.2275 41.6807 34.1621C 42.0005 34.1074 42.2671 33.9355 42.4805 33.6409C 42.5811 33.52 42.6592 33.3955 42.7144 33.2671C 42.8047 33.0552 42.8335 32.8328 42.8003 32.5996L 41.3604 24.4009C 41.6006 24.2141 41.874 24.0942 42.1807 24.0396L 42.3403 24.001C 42.5947 23.9585 42.8364 23.9478 43.0654 23.9685C 43.4131 24.0002 43.7314 24.1047 44.0205 24.2822C 44.5137 24.6274 44.814 25.0862 44.9204 25.6621L 46.0205 32.0396C 46.0381 32.1621 46.0688 32.2766 46.1133 32.3833C 46.2051 32.6028 46.354 32.7883 46.5605 32.9409C 46.6821 33.0256 46.8091 33.0881 46.9414 33.1289C 47.0615 33.1658 47.186 33.1846 47.3149 33.1853C 47.4014 33.1858 47.4902 33.178 47.5806 33.1621C 47.7476 33.1323 47.9028 33.0652 48.0464 32.9604C 48.166 32.8733 48.2773 32.7598 48.3804 32.6196C 48.647 32.2996 48.7539 31.9529 48.7007 31.5808L 48.0005 27.5608C 48.2271 27.3208 48.5205 27.1675 48.8804 27.0996C 49.5073 26.9929 50.0474 27.1409 50.5005 27.5396C 50.9673 28.0076 51.334 28.8408 51.6006 30.0396C 51.854 31.5608 52.1206 33.7607 52.4004 36.6409C 52.667 39.2009 52.5605 40.9529 52.0806 41.9009C 51.5605 43.0208 50.5874 44.7822 49.1606 47.1794C 48.0938 49.1155 47.6138 52.3462 47.7207 56.8809L 36.6406 56.8809C 36.6406 56.4663 36.5474 55.9663 36.3604 55.3809C 35.3457 52.6875 33.334 50.7087 30.3203 49.4409C 28.9204 48.7996 27.1938 47.3208 25.1406 45.001L 17.6606 37.1196C 17.2471 36.6929 17.0405 36.2009 17.0405 35.6409C 17.0405 35.0396 17.2739 34.5129 17.7407 34.0608C 17.897 33.9084 18.0605 33.7859 18.2314 33.6929C 18.5557 33.5164 18.9053 33.4463 19.2808 33.4822C 19.8804 33.5076 20.5405 33.7942 21.2607 34.3408L 28.5405 40.1621C 28.7407 40.3208 28.9204 40.4463 29.0806 40.5396C 29.2163 40.6191 29.3555 40.6711 29.4985 40.6953C 29.6924 40.7283 29.8931 40.71 30.1006 40.6409C 30.4204 40.5476 30.667 40.3408 30.8403 40.0208C 31.0674 39.6875 31.127 39.3342 31.0205 38.9609L 23.8003 14.9009C 23.6538 14.3809 23.7007 13.8596 23.9404 13.3408C 24.2339 12.8076 24.6807 12.4529 25.2808 12.2822C 25.894 12.0942 26.4473 12.1543 26.9404 12.4609C 27.064 12.5295 27.1772 12.605 27.2798 12.6877C 27.376 12.7656 27.4629 12.8499 27.5405 12.9409C 27.5962 13.0088 27.6479 13.0803 27.6953 13.1553C 27.8066 13.3311 27.895 13.5264 27.9604 13.7395L 34.1206 34.2607C 34.2271 34.6196 34.4473 34.8943 34.7808 35.0808C 35.127 35.2529 35.4736 35.2861 35.8203 35.1794C 36.127 35.0862 36.3672 34.8809 36.5405 34.5608C 36.7671 34.2009 36.834 33.8462 36.7407 33.501L 34.5205 26.1196L 34.3203 25.0608C 34.2271 24.4741 34.334 23.9409 34.6406 23.4609C 34.8672 23.1155 35.167 22.8596 35.5405 22.7009Z"/>
</defs>
</svg>
