<svg width="65" height="65" viewBox="0 0 65 65" version="1.1" xmlns="http://www.w3.org/2000/svg" xmlns:xlink="http://www.w3.org/1999/xlink">
<title>Group 9</title>
<desc>Created using Figma</desc>
<g id="Canvas" transform="translate(6646 -2387)">
<rect x="-6646" y="2387" width="65" height="65" fill="#E5E5E5"/>
<g id="Group 9">
<g id="Group 8">
<g id="Rectangle">
<use xlink:href="#path0_fill" transform="translate(-6646 2387)" fill="#C4C4C4" fill-opacity="0.01"/>
</g>
<g id="Union">
<use xlink:href="#path1_fill" transform="translate(-6637 2391)" fill="#0088FF"/>
</g>
</g>
</g>
</g>
<defs>
<path id="path0_fill" d="M 0 0L 65 0L 65 65L 0 65L 0 0Z"/>
<path id="path1_fill" fill-rule="evenodd" d="M 0.0183454 5.37988C 0.0715681 5.04663 0.238072 4.78662 0.518345 4.59985C 0.784947 4.41187 1.07694 4.34668 1.39823 4.3999L 2.93827 4.67993C 3.33817 3.89331 3.86454 3.1665 4.51835 2.5C 6.17167 0.833252 8.17167 0 10.5183 0C 12.8514 0 14.845 0.833252 16.4969 2.5C 16.9783 2.95337 17.3782 3.43994 17.698 3.95996C 17.8836 4.23853 17.9383 4.54004 17.8582 4.85986C 17.7913 5.17993 17.618 5.43335 17.3382 5.61987C 17.0579 5.79321 16.7581 5.84668 16.4383 5.78003C 16.118 5.69995 15.8645 5.52002 15.678 5.23853C 15.4515 4.87988 15.1648 4.5332 14.8182 4.19995C 13.618 3 12.1848 2.3999 10.5183 2.3999C 8.83817 2.3999 7.40995 2.99316 6.23807 4.17993L 6.23807 4.19995C 5.94461 4.49316 5.68485 4.79858 5.45829 5.11987L 6.35819 5.28003C 6.53592 5.30835 6.69315 5.36914 6.82938 5.4624C 6.94803 5.5437 7.05106 5.64966 7.13797 5.78003C 7.32352 6.04663 7.39139 6.33984 7.33817 6.65991C 7.28495 6.97998 7.11795 7.23853 6.83817 7.43994L 3.93827 9.47998C 3.79129 9.58667 3.61795 9.66138 3.41825 9.69995L 3.17801 9.69995C 3.00467 9.68652 2.84501 9.64673 2.69803 9.57983C 2.60477 9.52661 2.51151 9.46655 2.41825 9.40137L 2.39823 9.37988C 2.39823 9.3667 2.39139 9.35986 2.37821 9.35986C 2.29667 9.2666 2.23124 9.1814 2.17801 9.09985L 0.218052 6.28003C 0.031529 6 -0.0363421 5.69995 0.0183454 5.37988ZM 36.7185 20.7407C 36.2918 20.7407 35.8919 20.7939 35.5183 20.9006L 35.4099 20.9468L 35.3382 20.9807C 35.1375 20.5903 34.8855 20.228 34.5823 19.8936C 34.5227 19.8281 34.4617 19.7639 34.3982 19.7007C 33.4383 18.7407 32.2918 18.2607 30.9583 18.2607C 30.8528 18.2607 30.7488 18.2637 30.6458 18.2693C 30.3968 18.2832 30.1541 18.3135 29.9182 18.3606L 29.9182 10.5806C 29.9182 9.24731 29.4383 8.10059 28.4783 7.1394C 28.3343 6.99536 28.1863 6.86279 28.0349 6.7417C 27.7371 6.50366 27.4251 6.30957 27.0984 6.15942C 26.4715 5.854 25.7849 5.70068 25.0384 5.70068C 23.6516 5.70068 22.5052 6.17944 21.5984 7.1394C 20.8118 7.92725 20.3518 8.83398 20.2185 9.8606L 18.8582 7.92065C 18.8318 7.86743 18.7918 7.81396 18.7386 7.76074L 18.6585 7.67944C 18.4851 7.49268 18.2786 7.37939 18.0384 7.33936C 17.9969 7.32593 17.9519 7.3208 17.8982 7.3208L 17.5984 7.33936C 17.5862 7.33936 17.5745 7.34058 17.5623 7.34351L 17.5374 7.35132L 17.5183 7.3606L 17.4182 7.37939C 17.325 7.42065 17.2317 7.47412 17.1385 7.54077L 14.1985 9.56079C 13.9182 9.74731 13.7517 10.0073 13.6985 10.3406C 13.6448 10.6606 13.7117 10.9607 13.8982 11.2407C 14.0852 11.5073 14.3382 11.6672 14.6585 11.7207L 15.5584 11.9006C 15.3582 12.1941 15.1101 12.4873 14.8182 12.7808C 13.6316 13.9673 12.2049 14.5608 10.5384 14.5608C 8.85819 14.5608 7.42508 13.9673 6.23856 12.7808C 6.23856 12.7673 6.23172 12.7607 6.21854 12.7607C 5.95194 12.4927 5.7117 12.2126 5.49686 11.9207C 5.3118 11.6406 5.05155 11.4741 4.71854 11.4207C 4.39823 11.3674 4.09842 11.4353 3.81815 11.6206C 3.55155 11.8074 3.39188 12.0674 3.33817 12.4006C 3.31376 12.5483 3.31473 12.6917 3.3411 12.8308C 3.37186 12.9934 3.43778 13.1499 3.53836 13.3008C 3.70145 13.5295 3.8787 13.7549 4.0701 13.9763C 4.22342 14.1538 4.38651 14.3286 4.55838 14.5007L 4.53836 14.4607C 6.19169 16.1274 8.19169 16.9607 10.5384 16.9607C 12.8719 16.9607 14.865 16.134 16.5183 14.4807C 17.1848 13.814 17.7117 13.1006 18.0984 12.3406L 19.6385 12.6006C 19.825 12.6274 19.9969 12.6206 20.1585 12.5806L 20.1585 22.5007C 19.6785 22.3406 19.2239 22.262 18.7981 22.262C 17.4119 22.262 16.2386 22.7688 15.2786 23.7808C 15.159 23.9001 15.0476 24.0237 14.9446 24.1511C 14.7146 24.4355 14.5257 24.7393 14.3782 25.0608C 14.0716 25.6873 13.9182 26.3806 13.9182 27.1406L 13.9182 36.9021C 13.9715 42.554 15.7586 46.502 19.2786 48.7434C 21.2117 49.9819 22.4319 51.5554 22.9383 53.4619C 23.0052 53.7153 23.0584 53.97 23.0984 54.2219C 23.1404 54.4795 23.1692 54.7444 23.1853 55.0166C 23.2005 55.2656 23.2049 55.5208 23.1985 55.782C 23.1985 55.9954 23.2517 56.2087 23.3582 56.4233C 23.5183 56.6353 23.7049 56.7966 23.9182 56.9021C 24.1316 57.0088 24.345 57.062 24.5584 57.062L 38.3382 57.062C 38.4046 57.062 38.471 57.0569 38.5374 57.0466C 38.6844 57.0237 38.8313 56.9756 38.9783 56.9021C 39.076 56.8538 39.1682 56.7937 39.2547 56.7224C 39.3152 56.6724 39.3728 56.6169 39.428 56.5562C 39.4661 56.5144 39.5027 56.4702 39.5384 56.4233C 39.6038 56.2917 39.6492 56.1606 39.6746 56.0295C 39.6902 55.947 39.6985 55.8645 39.6985 55.782C 39.6848 55.25 39.7185 54.7434 39.7981 54.2634L 39.8382 53.9419C 40.0652 52.0754 40.7317 50.502 41.8382 49.2219L 43.6888 46.8679L 44.8528 45.3892L 45.6785 44.342C 46.5315 43.2219 47.0652 41.0354 47.2786 37.7808C 47.4915 34.7954 47.5984 32.5007 47.5984 30.9006C 47.5984 28.9287 47.1717 27.4888 46.3182 26.5806C 45.3582 25.5139 44.1848 24.9807 42.7981 24.9807C 42.4251 24.9807 42.1053 25.0073 41.8382 25.0608C 41.6785 23.9939 41.1717 23.0354 40.3182 22.1807C 39.4119 21.2207 38.2649 20.7407 36.8782 20.7407L 36.7185 20.7407ZM 44.9578 30.9802C 44.9578 32.5269 44.8514 34.7415 44.638 37.6216C 44.4778 40.1816 44.0779 41.8894 43.4378 42.7415C 42.7444 43.7549 41.491 45.3281 39.678 47.4614C 38.0247 49.5281 37.1512 51.7761 37.0579 54.2029L 37.0379 54.4229L 25.8377 54.4229C 25.8377 54.3547 25.8313 54.2881 25.8177 54.2229C 25.8055 54.1077 25.7908 53.9924 25.7732 53.877C 25.7522 53.7388 25.7268 53.6003 25.698 53.4614C 25.1643 50.5962 23.5047 48.2761 20.7181 46.5029C 17.9978 44.6348 16.6111 41.4363 16.5579 36.9016L 16.5579 27.1401C 16.5579 26.5549 16.7713 26.0481 17.198 25.6201C 17.4778 25.3416 17.7981 25.1548 18.158 25.0615C 18.2405 25.0396 18.3255 25.0217 18.4129 25.0085C 18.5369 24.9897 18.6653 24.9802 18.7981 24.9802C 18.9978 24.9802 19.1912 25.0083 19.3777 25.0615C 19.5486 25.1121 19.7171 25.1855 19.8831 25.2808C 19.9754 25.334 20.0672 25.3938 20.158 25.4602L 20.158 35.6216C 20.158 35.7908 20.1853 35.9487 20.2395 36.0957C 20.3055 36.2737 20.4119 36.4355 20.5579 36.5815C 20.8245 36.8481 21.1443 36.9814 21.5179 36.9814C 21.7093 36.9814 21.8914 36.9336 22.0638 36.8379C 22.1795 36.7739 22.2908 36.6885 22.3977 36.5815C 22.7181 36.3149 22.8777 35.9961 22.8777 35.6216L 22.8777 10.5801C 22.8777 10.2727 22.929 9.9873 23.0315 9.72412C 23.1248 9.48486 23.26 9.26392 23.4378 9.06152C 23.8645 8.63354 24.3977 8.42017 25.0379 8.42017C 25.678 8.42017 26.1844 8.63354 26.5579 9.06152C 26.8113 9.31348 26.991 9.6001 27.0979 9.92017C 27.1643 10.1335 27.198 10.3535 27.198 10.5801L 27.198 32.0215C 27.198 32.3948 27.3313 32.7148 27.5979 32.9802C 27.8645 33.2483 28.1844 33.3816 28.5579 33.3816C 28.8777 33.3816 29.1712 33.2483 29.4378 32.9802C 29.7581 32.7148 29.9178 32.3948 29.9178 32.0215L 29.9178 21.2214C 30.2244 21.0615 30.5711 20.9802 30.9578 20.9802C 31.5979 20.9802 32.1048 21.1948 32.4778 21.6201C 32.9046 22.0481 33.118 22.5549 33.118 23.1401L 33.138 32.0215C 33.138 32.3948 33.2713 32.7148 33.5379 32.9802C 33.6482 33.0913 33.7679 33.1792 33.8968 33.2439C 34.0789 33.3357 34.2791 33.3816 34.4978 33.3816C 34.8177 33.3816 35.1111 33.2483 35.3777 32.9802C 35.698 32.7148 35.8577 32.3948 35.8577 32.0215L 35.8577 26.5801L 35.8377 26.5801L 35.8377 23.7014C 36.1048 23.5415 36.3977 23.4602 36.7181 23.4602L 36.8777 23.4602C 37.5179 23.4602 38.0511 23.6482 38.4778 24.0215C 38.9046 24.4482 39.118 24.9536 39.118 25.5415L 39.118 32.0215C 39.118 32.3948 39.2513 32.7148 39.5179 32.9802C 39.7845 33.2483 40.1048 33.3816 40.4778 33.3816C 40.7981 33.3816 41.0911 33.2483 41.3577 32.9802C 41.678 32.7148 41.8377 32.3948 41.8377 32.0215L 41.8377 27.9414C 42.1048 27.7283 42.4246 27.6201 42.7981 27.6201C 43.4378 27.6201 43.9446 27.8616 44.3177 28.3416C 44.6912 28.8748 44.9046 29.7534 44.9578 30.9802Z"/>
</defs>
</svg>
