<svg width="65" height="65" viewBox="0 0 65 65" version="1.1" xmlns="http://www.w3.org/2000/svg" xmlns:xlink="http://www.w3.org/1999/xlink">
<title>Group 10</title>
<desc>Created using Figma</desc>
<g id="Canvas" transform="translate(6926 -2387)">
<rect x="-6926" y="2387" width="65" height="65" fill="#E5E5E5"/>
<g id="Group 10">
<g id="Subtract">
<use xlink:href="#path0_fill" transform="translate(-6910 2392)" fill="#0088FF"/>
</g>
</g>
</g>
<defs>
<path id="path0_fill" fill-rule="evenodd" d="M 11.3599 1.81982C 10.1333 0.606689 8.67334 0 6.97998 0C 5.28662 0 3.82666 0.606689 2.6001 1.81982C 1.38818 3.04663 0.779785 4.50781 0.779785 6.19995C 0.779785 7.89331 1.38818 9.35327 2.6001 10.5798L 2.6001 10.6013C 3.64014 11.6267 4.85352 12.2131 6.24023 12.3586L 6.24023 20.2212C 5.75977 20.0598 5.30664 19.9812 4.87988 19.9812C 3.49316 19.9812 2.31982 20.4866 1.35986 21.5C 1.20361 21.6567 1.06152 21.8191 0.933594 21.9883C 0.745117 22.2378 0.587402 22.5015 0.459961 22.7812C 0.15332 23.4053 0 24.1013 0 24.8586L 0 34.6199C 0.0532227 40.2732 1.83984 44.2212 5.35986 46.46C 7.29346 47.7 8.51318 49.2732 9.02002 51.1799C 9.08643 51.4346 9.14014 51.6865 9.18018 51.9399C 9.229 52.2444 9.26074 52.5581 9.27441 52.8816C 9.2832 53.0837 9.28516 53.2898 9.27979 53.5C 9.27979 53.6023 9.29199 53.7046 9.31689 53.8069C 9.34375 53.9177 9.38477 54.0288 9.43994 54.1399C 9.6001 54.3533 9.78662 54.5132 10 54.6199C 10.2134 54.7266 10.4268 54.7812 10.6401 54.7812L 24.4199 54.7812C 24.6333 54.7812 24.8467 54.7266 25.0601 54.6199C 25.127 54.5864 25.1914 54.5479 25.2529 54.5042C 25.3877 54.408 25.5098 54.2866 25.6201 54.1399C 25.7266 53.9265 25.7798 53.7131 25.7798 53.5C 25.7666 52.9653 25.7998 52.46 25.8799 51.9812L 25.9199 51.6611C 26.1465 49.7932 26.8135 48.2212 27.9199 46.9399C 29.6802 44.7 30.96 43.072 31.7598 42.0598C 32.6133 40.9399 33.1465 38.7546 33.3599 35.5C 33.5732 32.5132 33.6802 30.2212 33.6802 28.6199C 33.6802 26.6453 33.2534 25.208 32.3999 24.3013C 31.4399 23.2346 30.2666 22.7 28.8799 22.7C 28.5068 22.7 28.1865 22.7266 27.9199 22.7812C 27.7598 21.7131 27.2534 20.7546 26.3999 19.9014C 25.6265 19.0852 24.6865 18.6199 23.5801 18.5C 23.3799 18.4731 23.1733 18.46 22.96 18.46L 22.7998 18.46C 22.3735 18.46 21.9731 18.5132 21.6001 18.6199C 21.5625 18.6343 21.5269 18.6499 21.4937 18.6653L 21.4199 18.7C 21.3398 18.5449 21.252 18.394 21.1558 18.2473C 20.9629 17.9539 20.7378 17.6775 20.48 17.4187C 19.52 16.46 18.3735 15.9812 17.04 15.9812C 16.6802 15.9812 16.3335 16.0132 16 16.0798L 16 8.30127C 16 6.96533 15.52 5.81982 14.5601 4.85864C 14.4355 4.73438 14.3081 4.61816 14.1777 4.51025C 14.063 4.41504 13.9463 4.32642 13.8271 4.2439C 13.4595 3.9895 13.0703 3.79517 12.6602 3.66113C 12.3535 2.99194 11.9268 2.37988 11.3799 1.81982L 11.3599 1.81982ZM 11.1201 6.14014C 11.7603 6.14014 12.2666 6.35352 12.6401 6.78003C 12.8267 6.96558 12.9736 7.16675 13.0801 7.38013C 13.1323 7.49048 13.1743 7.60449 13.2065 7.72241C 13.2559 7.90503 13.2803 8.09741 13.2803 8.30151L 13.2803 29.7388C 13.2803 30.1135 13.4136 30.4348 13.6802 30.7002C 13.9468 30.9656 14.2666 31.1016 14.6401 31.1016C 14.96 31.1016 15.2534 30.9656 15.52 30.7002C 15.7275 30.5283 15.8677 30.3333 15.9404 30.1152C 15.98 29.9963 16 29.8708 16 29.7388L 16 18.9402C 16.3066 18.78 16.6533 18.7002 17.04 18.7002C 17.1445 18.7002 17.2456 18.7058 17.3428 18.7173C 17.8418 18.7756 18.248 18.9832 18.5601 19.3401C 18.752 19.5315 18.9009 19.7395 19.0063 19.9639C 19.1172 20.1987 19.1802 20.4514 19.1963 20.7212C 19.1987 20.7666 19.2002 20.8125 19.2002 20.8589L 19.2202 29.7388C 19.2202 29.9426 19.2593 30.1306 19.3384 30.3025C 19.4048 30.4465 19.4985 30.5791 19.6201 30.7002C 19.8867 30.9656 20.2056 31.1016 20.5801 31.1016C 20.8999 31.1016 21.1934 30.9656 21.46 30.7002C 21.5215 30.6492 21.5771 30.5962 21.627 30.541C 21.8359 30.3093 21.9399 30.0415 21.9399 29.7388L 21.9399 24.3015L 21.9199 24.3015L 21.9199 21.4187C 22.0522 21.3401 22.1909 21.2805 22.3359 21.2402C 22.4839 21.1995 22.6387 21.1787 22.8003 21.1787L 22.96 21.1787C 23.1733 21.1787 23.3804 21.2083 23.5801 21.2603C 23.9536 21.3401 24.2803 21.5002 24.5601 21.7388C 24.8174 21.9971 24.9976 22.2839 25.0996 22.5999C 25.1665 22.8074 25.2002 23.0276 25.2002 23.2603L 25.2002 29.7388C 25.2002 29.9197 25.2314 30.0879 25.2935 30.2434C 25.3599 30.4104 25.4619 30.5627 25.6001 30.7002C 25.8667 30.9656 26.187 31.1016 26.5601 31.1016C 26.7554 31.1016 26.9404 31.051 27.1157 30.9514C 27.228 30.8877 27.3359 30.8037 27.4399 30.7002C 27.5913 30.5747 27.707 30.4365 27.7866 30.2864C 27.8755 30.1189 27.9199 29.9363 27.9199 29.7388L 27.9199 25.6614C 28.187 25.4468 28.5068 25.3401 28.8804 25.3401C 29.1465 25.3401 29.3896 25.3816 29.6099 25.4646C 29.9185 25.5811 30.1821 25.7793 30.3999 26.0588C 30.7734 26.5935 30.9868 27.4734 31.04 28.7002C 31.04 29.2139 31.0283 29.8013 31.0049 30.4622C 30.9575 31.791 30.8628 33.4167 30.7202 35.3401C 30.5601 37.9001 30.1602 39.6067 29.52 40.4602C 29.1167 41.0496 28.5239 41.8286 27.7417 42.7969C 27.1792 43.4929 26.5186 44.2871 25.7603 45.1787C 24.1069 47.2468 23.2334 49.4922 23.1401 51.9187L 23.1201 52.1401L 11.9199 52.1401C 11.9199 52.072 11.9136 52.0068 11.8999 51.9402C 11.8823 51.7703 11.8584 51.6011 11.8286 51.4309C 11.814 51.3472 11.7979 51.2632 11.7803 51.1787C 11.2466 48.3123 9.58691 45.9922 6.80029 44.2214C 4.08008 42.3535 2.69336 39.1536 2.64014 34.6189L 2.64014 24.8589C 2.64014 24.2734 2.85352 23.7654 3.28027 23.3401C 3.56006 23.0588 3.88037 22.8721 4.24023 22.78C 4.43994 22.7256 4.65332 22.7002 4.88037 22.7002C 5.08008 22.7002 5.27344 22.7256 5.45996 22.78C 5.55615 22.8083 5.65088 22.8438 5.74512 22.8862C 5.79785 22.9099 5.8501 22.9358 5.90186 22.9636C 5.96924 22.9998 6.03613 23.0396 6.10254 23.083C 6.14844 23.113 6.19434 23.145 6.24023 23.1787L 6.24023 33.3401C 6.24023 33.55 6.28271 33.7432 6.36719 33.9197C 6.43262 34.0571 6.52344 34.1843 6.64014 34.3015C 6.90674 34.5669 7.22656 34.7002 7.6001 34.7002C 7.80176 34.7002 7.99316 34.6472 8.17383 34.5415C 8.2793 34.4795 8.38135 34.3994 8.47998 34.3015C 8.80029 34.0334 8.95996 33.7134 8.95996 33.3401L 8.95996 8.30151C 8.95996 7.71338 9.14697 7.20825 9.52002 6.78003C 9.8667 6.43481 10.2866 6.22559 10.7803 6.16138C 10.8228 6.15503 10.8662 6.15039 10.9111 6.14697L 11.0039 6.14185L 11.1201 6.14014ZM 8.85156 3.95508C 9.13721 3.80371 9.44043 3.68555 9.76025 3.60132L 9.68018 3.52002L 9.68018 3.5C 8.92041 2.76538 8.02002 2.40137 6.97998 2.40137C 5.93994 2.40137 5.04688 2.76538 4.30029 3.5L 4.28027 3.52002C 3.54688 4.26538 3.18018 5.16138 3.18018 6.19995C 3.18018 7.23999 3.54688 8.13989 4.28027 8.90137L 4.30029 8.90137C 4.86035 9.448 5.50684 9.79468 6.24023 9.93994L 6.24023 8.30127C 6.24023 6.96533 6.72021 5.81982 7.68018 4.85864C 8.03223 4.48413 8.42236 4.18213 8.85156 3.95508Z"/>
</defs>
</svg>
