<svg width="65" height="65" viewBox="0 0 65 65" version="1.1" xmlns="http://www.w3.org/2000/svg" xmlns:xlink="http://www.w3.org/1999/xlink">
<title>Group 3</title>
<desc>Created using Figma</desc>
<g id="Canvas" transform="translate(6506 -2387)">
<rect x="-6506" y="2387" width="65" height="65" fill="#E5E5E5"/>
<g id="Group 3">
<g id="Rectangle">
<use xlink:href="#path0_fill" transform="translate(-6506 2387)" fill="#C4C4C4" fill-opacity="0.01"/>
</g>
<g id="Union">
<use xlink:href="#path1_fill" transform="translate(-6502 2390)" fill="#0088FF"/>
</g>
</g>
</g>
<defs>
<path id="path0_fill" d="M 0 0L 65 0L 65 65L 0 65L 0 0Z"/>
<path id="path1_fill" fill-rule="evenodd" d="M 21.5205 0.360107C 21.2803 0.120117 20.9937 0.00537109 20.6606 0.0212402L 15.5605 0C 15.3999 0 15.249 0.0302734 15.1084 0.0910645C 14.9692 0.151123 14.8398 0.240723 14.7207 0.360107C 14.4805 0.600098 14.3604 0.881348 14.3604 1.20142C 14.374 1.53467 14.5005 1.82129 14.7407 2.06006L 16.4404 3.76123L 12.3804 7.82129C 12.1406 8.06006 12.0137 8.34668 12.0005 8.67993C 12.0005 9 12.1206 9.27856 12.3604 9.52124C 12.4292 9.59009 12.501 9.64917 12.5767 9.698C 12.6035 9.71558 12.6309 9.73193 12.6587 9.74707C 12.8242 9.83643 13.0049 9.88135 13.2007 9.88135C 13.5337 9.86792 13.8203 9.73999 14.0605 9.5L 18.1206 5.44141L 19.8203 7.14136C 20.0605 7.38135 20.3403 7.5 20.6606 7.5C 20.8721 7.50854 21.0649 7.46655 21.2388 7.3728C 21.3389 7.31909 21.4326 7.24805 21.5205 7.15991C 21.7603 6.91992 21.874 6.6333 21.8604 6.30005L 21.8604 1.22144C 21.8687 1.02344 21.832 0.842041 21.751 0.677246C 21.6953 0.563721 21.6182 0.458008 21.5205 0.360107ZM 9.85986 13.2219C 9.85986 12.9021 9.74023 12.6206 9.5 12.3806C 9.25977 12.1406 8.97998 12.022 8.66016 12.022C 8.33984 12.022 8.06006 12.1406 7.81982 12.3806L 3.75977 16.4407L 2.06006 14.7407C 1.81982 14.5007 1.5332 14.3728 1.2002 14.3606C 0.866699 14.3728 0.586426 14.4954 0.359863 14.7219C 0.300293 14.7815 0.248047 14.8435 0.203125 14.908C 0.161133 14.9685 0.125488 15.031 0.0966797 15.0957C 0.0322266 15.24 0 15.3948 0 15.5608L 0.0200195 20.6594C 0.00683594 20.9954 0.120117 21.2793 0.359863 21.522C 0.600098 21.7607 0.886719 21.8728 1.22021 21.8606L 6.2998 21.8606C 6.4707 21.8669 6.62939 21.8406 6.77588 21.781C 6.91504 21.7246 7.04297 21.6384 7.16016 21.522C 7.25342 21.4287 7.32715 21.325 7.38184 21.2109C 7.46045 21.0479 7.5 20.8635 7.5 20.6594C 7.5 20.342 7.37988 20.0608 7.14014 19.8208L 5.43994 18.1206L 9.5 14.0608C 9.63867 13.9224 9.73682 13.7712 9.79541 13.6067C 9.83838 13.4856 9.85986 13.3574 9.85986 13.2219ZM 40.3804 21.8C 40.0737 21.3855 39.6938 21.0215 39.2407 20.7014C 38.1338 19.9148 36.9272 19.6335 35.6206 19.8601C 34.5674 20.0481 33.7007 20.4949 33.0205 21.2014L 30.5405 12.9802C 30.1938 11.7014 29.4204 10.7268 28.2207 10.0601C 27.9937 9.92822 27.7603 9.82153 27.5205 9.74023C 26.5474 9.38159 25.5405 9.35474 24.5005 9.66016C 23.1807 10.0481 22.2207 10.8269 21.6206 12.0002C 20.9805 13.1602 20.8257 14.3682 21.1606 15.6201L 21.1406 15.6201C 21.1553 15.6421 21.1655 15.6663 21.1724 15.6924C 21.1777 15.7139 21.1807 15.7368 21.1807 15.7615L 27.0605 35.2402C 26.0205 34.4402 25.0205 33.6667 24.0605 32.9202C 22.2739 31.5054 20.707 30.7949 19.3604 30.7788C 17.9736 30.7402 16.8003 31.1802 15.8403 32.1001C 14.8403 33.0481 14.3403 34.1882 14.3403 35.5215C 14.314 36.8682 14.7603 38.0269 15.6807 39.0002L 24.0806 47.8C 25.6406 49.7322 27.3672 51.0947 29.2603 51.8816C 31.3403 52.7734 32.7939 54.0947 33.6206 55.8416C 33.6206 55.8682 33.627 55.8936 33.6406 55.9202C 33.707 56.1748 33.7603 56.4282 33.8003 56.6802C 33.8804 57.1748 33.9136 57.6936 33.9004 58.2402C 33.9004 58.4534 33.9536 58.6667 34.0605 58.8816C 34.2207 59.0947 34.4072 59.2534 34.6206 59.3601C 34.7212 59.4104 34.8218 59.4492 34.9224 59.4761C 35.0352 59.5063 35.1479 59.5215 35.2603 59.5215L 49.2207 59.5215C 49.3477 59.5215 49.4746 59.5022 49.6016 59.4639C 49.6875 59.438 49.7739 59.4033 49.8604 59.3601C 50.0737 59.2534 50.2603 59.0947 50.4204 58.8816C 50.5273 58.6667 50.5806 58.4534 50.5806 58.2402L 50.5806 57.9202C 50.4736 52.9614 50.8071 49.8335 51.5806 48.5427C 52.9404 46.0349 53.9272 44.2214 54.5405 43.1001C 55.1938 41.8469 55.3472 39.5947 55.0005 36.3416C 54.707 33.3682 54.4272 31.0947 54.1606 29.5215C 53.8257 27.5735 53.167 26.2268 52.1807 25.4802C 51.0474 24.5869 49.7939 24.2534 48.4204 24.4802C 48.0605 24.5481 47.7539 24.6282 47.5005 24.7214C 47.1538 23.7068 46.4873 22.8547 45.5005 22.1602C 44.4473 21.3735 43.2339 21.0947 41.8604 21.3215L 41.7007 21.3601C 41.54 21.3865 41.3843 21.4199 41.2339 21.4604C 40.9971 21.5239 40.7725 21.6045 40.5605 21.7014C 40.4937 21.7402 40.4336 21.7734 40.3804 21.8ZM 42.3203 24.0007C 42.5845 23.9568 42.835 23.9468 43.0718 23.9707C 43.4087 24.0049 43.7183 24.1077 44.0005 24.2793C 44.2388 24.448 44.4321 24.6421 44.5801 24.8623C 44.6587 24.9792 44.7246 25.1033 44.7778 25.2351C 44.8315 25.3687 44.8726 25.51 44.9004 25.6592L 46.0005 32.042C 46.0537 32.4153 46.2339 32.7139 46.5405 32.9407C 46.8472 33.1541 47.187 33.2273 47.5605 33.1592C 47.7261 33.1311 47.8794 33.0659 48.0215 32.9639C 48.1431 32.8765 48.2559 32.762 48.3604 32.6206C 48.4443 32.5195 48.5122 32.416 48.5645 32.3098C 48.6782 32.0791 48.7173 31.8364 48.6807 31.582L 47.9805 27.5605C 48.207 27.3206 48.5005 27.1672 48.8604 27.0994C 49.4873 26.9954 50.0273 27.1406 50.4805 27.542C 50.9473 28.0059 51.314 28.842 51.5806 30.042C 51.834 31.5605 52.0991 33.7605 52.3804 36.6406C 52.647 39.2007 52.5405 40.9539 52.0605 41.9019C 51.8179 42.4248 51.4761 43.0869 51.0356 43.8887C 50.5327 44.8037 49.9014 45.9006 49.1406 47.1807C 48.0737 49.1125 47.5938 52.3472 47.7007 56.8806L 36.6206 56.8806C 36.6206 56.4673 36.5273 55.9673 36.3403 55.3806C 35.3257 52.6887 33.314 50.7061 30.3003 49.4407C 28.9004 48.8005 27.1738 47.3206 25.1206 45.0007L 17.6406 37.1206C 17.2271 36.6938 17.0205 36.2007 17.0205 35.6406C 17.0205 35.2539 17.1182 34.8967 17.313 34.5701C 17.4194 34.3911 17.5552 34.2212 17.7207 34.0605C 18.1738 33.6206 18.687 33.4272 19.2607 33.4792C 19.8604 33.5059 20.5205 33.7952 21.2407 34.342L 28.5205 40.1592C 28.623 40.2417 28.7197 40.3154 28.8115 40.3804C 28.8994 40.4424 28.9824 40.4963 29.0605 40.542C 29.1528 40.5955 29.2471 40.6362 29.3428 40.6643C 29.5786 40.7336 29.8247 40.7258 30.0806 40.6406C 30.4004 40.5474 30.647 40.342 30.8203 40.022C 31.0474 39.6887 31.1069 39.334 31.0005 38.9619L 23.7803 14.9019C 23.6338 14.3806 23.6807 13.8606 23.9204 13.342C 24.2124 12.8074 24.6606 12.4539 25.2607 12.2793C 25.874 12.094 26.4272 12.1541 26.9204 12.4619C 27.1606 12.594 27.3604 12.7527 27.5205 12.9407C 27.707 13.1672 27.8472 13.4326 27.9404 13.7407L 34.0991 34.2605C 34.1699 34.4961 34.2886 34.6946 34.4556 34.8564C 34.5439 34.9419 34.6455 35.0171 34.7607 35.082C 35.1069 35.2527 35.4536 35.2874 35.8003 35.1807C 36.1069 35.0859 36.3472 34.8806 36.5205 34.5605C 36.7471 34.2007 36.814 33.8472 36.7207 33.5007L 34.5005 26.1206L 34.3003 25.0605C 34.207 24.4739 34.314 23.9407 34.6206 23.4619C 34.8472 23.1125 35.147 22.8606 35.5205 22.7007L 35.5205 22.7219C 35.626 22.6672 35.7407 22.6287 35.8604 22.5994L 36.0005 22.5605L 36.0205 22.5605C 36.0337 22.5605 36.0537 22.5527 36.0806 22.542C 36.707 22.4326 37.2471 22.5686 37.7007 22.9407C 38.1807 23.2739 38.4673 23.7327 38.5605 24.3206L 40.0991 33.0605C 40.1235 33.2271 40.1743 33.3792 40.252 33.5168C 40.3477 33.687 40.4839 33.8352 40.6606 33.9619C 40.9536 34.1592 41.2871 34.2273 41.6606 34.1592C 41.9805 34.1072 42.2471 33.9326 42.4604 33.6406C 42.7271 33.3206 42.834 32.9739 42.7803 32.5994L 41.3403 24.4019C 41.5806 24.2139 41.854 24.094 42.1606 24.042L 42.3203 24.0007Z"/>
</defs>
</svg>
