<svg width="65" height="65" viewBox="0 0 65 65" version="1.1" xmlns="http://www.w3.org/2000/svg" xmlns:xlink="http://www.w3.org/1999/xlink">
<title>Group 7</title>
<desc>Created using Figma</desc>
<g id="Canvas" transform="translate(6716 -2387)">
<rect x="-6716" y="2387" width="65" height="65" fill="#E5E5E5"/>
<g id="Group 7">
<g id="Rectangle">
<use xlink:href="#path0_fill" transform="translate(-6716 2387)" fill="#C4C4C4" fill-opacity="0.01"/>
</g>
<g id="Union">
<use xlink:href="#path1_fill" transform="translate(-6710 2393)" fill="#0088FF"/>
</g>
</g>
</g>
<defs>
<path id="path0_fill" d="M 0 0L 65 0L 65 65L 0 65L 0 0Z"/>
<path id="path1_fill" fill-rule="evenodd" d="M 6 3.6001L 22.2798 3.6001C 22.6133 3.6001 22.8999 3.72021 23.1411 3.96021C 23.3667 4.18677 23.48 4.4668 23.48 4.80005C 23.48 5.13354 23.3667 5.42017 23.1411 5.66016C 22.8999 5.88672 22.6133 6 22.2798 6L 6 6L 6 8.40015C 6 8.56567 5.97217 8.71948 5.91602 8.86182C 5.85938 9.0061 5.77393 9.13867 5.66016 9.26001C 5.41992 9.48682 5.1333 9.6001 4.7998 9.6001C 4.61865 9.6001 4.45312 9.56665 4.30371 9.49976C 4.17822 9.44336 4.06348 9.36353 3.95996 9.26001L 0.359863 5.66016C 0.120117 5.42017 0 5.13354 0 4.80005C 0 4.4668 0.120117 4.18677 0.359863 3.96021L 3.95996 0.360107C 4.09863 0.213135 4.25732 0.111328 4.43604 0.0541992C 4.54932 0.0180664 4.67041 0 4.7998 0C 5.1333 0 5.41992 0.120117 5.66016 0.360107C 5.88672 0.58667 6 0.866699 6 1.2002L 6 3.6001ZM 24.8203 6.90015L 24.8203 24.2017C 24.6069 23.0537 24.04 22.1135 23.1201 21.3804C 23.0923 21.3523 23.062 21.3259 23.0303 21.3015C 23.002 21.2795 22.9717 21.2593 22.9404 21.2402C 22.7422 21.0928 22.54 20.9622 22.334 20.8481C 22.1479 20.7451 21.9595 20.6558 21.7676 20.5798C 21.0005 20.2761 20.1846 20.189 19.3203 20.3188C 18.3467 20.4536 17.5337 20.8069 16.8804 21.3804C 16.6138 21.6204 16.3667 21.9001 16.1401 22.2202C 15.3267 23.3149 15.0137 24.5203 15.2002 25.8403L 16.9604 33.1802C 18.3467 39.0203 20.6733 42.9817 23.9404 45.0615C 25.8735 46.3015 27.0938 47.8735 27.6001 49.7815C 27.667 50.0349 27.7202 50.2883 27.7603 50.5415C 27.8403 51.0349 27.8735 51.5549 27.8604 52.1016C 27.8604 52.3162 27.9136 52.5283 28.02 52.7417C 28.1802 52.9548 28.3667 53.115 28.5801 53.2217C 28.7935 53.3284 29.0068 53.3816 29.2202 53.3816L 43 53.3816C 43.1157 53.3816 43.2314 53.366 43.3472 53.3345C 43.4448 53.3081 43.5425 53.2705 43.6401 53.2217C 43.7217 53.1809 43.7993 53.1323 43.873 53.0759C 43.9922 52.9849 44.1011 52.8733 44.2002 52.7417C 44.2744 52.5928 44.3232 52.4446 44.3457 52.2957C 44.3555 52.2312 44.3604 52.1665 44.3604 52.1016C 44.353 51.8145 44.3594 51.5349 44.3794 51.2632C 44.3965 51.0303 44.4233 50.803 44.4604 50.5815L 44.5 50.2615C 44.7271 48.395 45.3936 46.8203 46.5 45.5415C 48.2603 43.3015 49.54 41.6748 50.3403 40.6616C 51.1934 39.5403 51.7271 37.355 51.9404 34.1003C 52.0234 32.9392 52.0898 31.8828 52.1406 30.9312C 52.2202 29.4351 52.2603 28.1982 52.2603 27.2202C 52.2603 25.2468 51.8335 23.8069 50.98 22.9001C 50.02 21.8335 48.8467 21.3003 47.4604 21.3003C 47.2729 21.3003 47.0991 21.3071 46.9385 21.3206C 46.7788 21.3337 46.6328 21.3538 46.5 21.3804C 46.3403 20.3149 45.8335 19.3535 44.98 18.5002C 44.0737 17.5403 42.9268 17.0603 41.54 17.0603L 41.3804 17.0603C 40.9536 17.0603 40.5537 17.1135 40.1802 17.2202C 40.1138 17.2468 40.0537 17.2737 40 17.3003C 39.7603 16.8335 39.4468 16.407 39.0601 16.0203C 38.1001 15.0603 36.9536 14.5803 35.6201 14.5803C 35.2603 14.5803 34.9136 14.6135 34.5801 14.6802L 34.5801 6.90015C 34.5801 5.56689 34.1001 4.42017 33.1401 3.46021C 32.1802 2.50024 31.0337 2.01904 29.7002 2.01904C 29.207 2.01904 28.7471 2.08032 28.3203 2.2002C 27.5337 2.41357 26.8467 2.8335 26.2603 3.46021C 25.3003 4.42017 24.8203 5.56689 24.8203 6.90015ZM 28.3203 5.20044C 28.5181 5.04346 28.7354 4.92676 28.9717 4.8501C 29.1968 4.7771 29.4399 4.74048 29.7002 4.74048C 30.3403 4.74048 30.8472 4.95239 31.2202 5.38037C 31.4272 5.58716 31.584 5.81274 31.6904 6.05737C 31.7627 6.2229 31.812 6.39722 31.8384 6.58008C 31.853 6.68408 31.8604 6.79077 31.8604 6.90039L 31.8604 28.3403C 31.8604 28.7136 31.9937 29.0337 32.2603 29.3018C 32.5269 29.5671 32.8472 29.7004 33.2202 29.7004C 33.5405 29.7004 33.8335 29.5671 34.1001 29.3018C 34.4204 29.0337 34.5801 28.7136 34.5801 28.3403L 34.5801 17.5403C 34.7891 17.4314 35.0166 17.3596 35.2627 17.3247C 35.3779 17.3083 35.4971 17.3003 35.6201 17.3003C 36.0156 17.3003 36.3599 17.3818 36.6538 17.5444C 36.8354 17.6453 36.9976 17.7773 37.1401 17.9404C 37.5669 18.3669 37.7803 18.8723 37.7803 19.4604L 37.8003 28.3403C 37.8003 28.7136 37.9336 29.0337 38.2002 29.3018C 38.4668 29.5671 38.7871 29.7004 39.1602 29.7004C 39.3765 29.7004 39.5801 29.6396 39.772 29.5186C 39.8643 29.4602 39.9536 29.3879 40.0405 29.3018C 40.3604 29.0337 40.5205 28.7136 40.5205 28.3403L 40.5205 22.9004L 40.5005 22.9004L 40.5005 20.0203C 40.6167 19.9507 40.7373 19.8962 40.8633 19.8569C 40.9126 19.8416 40.9629 19.8284 41.0142 19.8176C 41.1318 19.7927 41.2539 19.7803 41.3804 19.7803L 41.5405 19.7803C 41.856 19.7803 42.1455 19.8257 42.4092 19.9165C 42.6802 20.0098 42.9238 20.1511 43.1401 20.3403C 43.5669 20.7671 43.7803 21.2737 43.7803 21.8604L 43.7803 28.3403C 43.7803 28.7136 43.9136 29.0337 44.1802 29.3018C 44.4468 29.5671 44.7671 29.7004 45.1401 29.7004C 45.4604 29.7004 45.7534 29.5671 46.0205 29.3018C 46.2109 29.1421 46.3447 28.9639 46.4219 28.7668C 46.4741 28.6333 46.5005 28.4912 46.5005 28.3403L 46.5005 24.259C 46.6313 24.155 46.7749 24.0764 46.9312 24.0234C 47.0938 23.9683 47.27 23.9404 47.4604 23.9404C 47.7832 23.9404 48.0718 24.0015 48.3267 24.1235C 48.5771 24.2434 48.7954 24.4224 48.9805 24.6604C 49.3535 25.1936 49.5669 26.0737 49.6201 27.3018C 49.6201 28.8484 49.5137 31.0603 49.3003 33.9404C 49.1401 36.5005 48.7402 38.207 48.1001 39.0603C 47.4067 40.075 46.1538 41.647 44.3403 43.7817C 42.687 45.8484 41.8135 48.0938 41.7202 50.5217L 41.7002 50.7417L 30.5005 50.7417C 30.5005 50.675 30.4937 50.6084 30.4805 50.5417C 30.4536 50.2883 30.4136 50.0337 30.3604 49.7817C 29.8271 46.915 28.167 44.5938 25.3804 42.8203C 22.9004 41.115 21.0205 37.7551 19.7402 32.7417L 17.8804 25.4404C 17.8003 24.8669 17.9136 24.3403 18.2202 23.8604C 18.5938 23.3804 19.0938 23.1003 19.7202 23.0203C 20.3604 22.927 20.8872 23.0603 21.3003 23.4204C 21.7935 23.7803 22.2871 24.7336 22.7803 26.2803L 24.4805 31.5203C 24.707 32.1736 24.9536 32.635 25.2202 32.9016C 25.4287 33.1094 25.6704 33.2371 25.9443 33.2827C 26.0205 33.2954 26.0991 33.3018 26.1802 33.3018C 26.5005 33.3018 26.7935 33.167 27.0601 32.9016C 27.2075 32.7788 27.3208 32.6445 27.4004 32.499C 27.4937 32.3281 27.5405 32.1418 27.5405 31.9404L 27.5405 6.90039C 27.5405 6.55273 27.606 6.2334 27.7368 5.94189C 27.7866 5.83154 27.8457 5.7251 27.9141 5.62256C 27.9697 5.53906 28.0317 5.4585 28.1001 5.38037C 28.1333 5.34717 28.1685 5.31567 28.2051 5.28564L 28.2495 5.25049C 28.2725 5.23315 28.2964 5.21655 28.3203 5.20044Z"/>
</defs>
</svg>
