<svg width="65" height="65" viewBox="0 0 65 65" version="1.1" xmlns="http://www.w3.org/2000/svg" xmlns:xlink="http://www.w3.org/1999/xlink">
<title>Group 6</title>
<desc>Created using Figma</desc>
<g id="Canvas" transform="translate(6786 -2387)">
<rect x="-6786" y="2387" width="65" height="65" fill="#E5E5E5"/>
<g id="Group 6">
<g id="Rectangle">
<use xlink:href="#path0_fill" transform="translate(-6786 2387)" fill="#C4C4C4" fill-opacity="0.01"/>
</g>
<g id="Union">
<use xlink:href="#path1_fill" transform="translate(-6780 2393)" fill="#0088FF"/>
</g>
</g>
</g>
<defs>
<path id="path0_fill" d="M 0 0L 65 0L 65 65L 0 65L 0 0Z"/>
<path id="path1_fill" fill-rule="evenodd" d="M 0.0683594 4.37915C 0.124512 4.21875 0.214844 4.07227 0.339844 3.94019C 0.580078 3.71338 0.866699 3.6001 1.2002 3.6001L 17.48 3.6001L 17.48 1.2002C 17.48 0.866699 17.5933 0.580078 17.8198 0.340088C 18.0601 0.113525 18.3467 0 18.6802 0C 19.0132 0 19.2935 0.113525 19.52 0.340088L 23.1201 3.94019C 23.3599 4.18018 23.48 4.4668 23.48 4.80005C 23.48 5.13354 23.3599 5.41333 23.1201 5.64014L 19.52 9.23999C 19.2935 9.47998 19.0132 9.6001 18.6802 9.6001C 18.4858 9.6001 18.3071 9.55933 18.1445 9.47754C 18.0283 9.41919 17.9199 9.34009 17.8198 9.23999C 17.5933 9.01343 17.48 8.7334 17.48 8.40015L 17.48 6L 1.2002 6C 0.866699 6 0.580078 5.88013 0.339844 5.64014C 0.113281 5.41333 0 5.13354 0 4.80005C 0 4.65039 0.0229492 4.51001 0.0683594 4.37915ZM 25.4204 6.90039L 25.4204 24.0605L 24.6602 22.0205C 24.5801 21.7939 24.4937 21.5806 24.4004 21.3806C 23.9336 20.4338 23.1934 19.7058 22.1802 19.2019C 20.9668 18.5872 19.7271 18.4939 18.4604 18.9204C 17.1538 19.3606 16.2202 20.1804 15.6602 21.3806C 15.0601 22.5938 14.9736 23.8337 15.4004 25.1006L 19.9604 38.7805C 20.7871 41.5552 22.3135 43.6484 24.54 45.0618C 26.4736 46.3018 27.6934 47.8738 28.2002 49.7817L 28.2256 49.8806C 28.2808 50.1011 28.3257 50.3215 28.3604 50.5417C 28.4404 51.0352 28.4736 51.5552 28.4604 52.1018C 28.4604 52.3164 28.5137 52.5286 28.6201 52.7419C 28.7251 52.8818 28.8418 52.9988 28.9697 53.093C 29.0366 53.1423 29.1069 53.1853 29.1802 53.2219C 29.3936 53.3286 29.6069 53.3818 29.8203 53.3818L 43.6001 53.3818C 43.7275 53.3818 43.855 53.3628 43.9824 53.325C 44.0684 53.2993 44.1543 53.2649 44.2402 53.2219C 44.4536 53.1152 44.6401 52.9551 44.8003 52.7419C 44.8472 52.6484 44.8838 52.5552 44.9097 52.4617C 44.9434 52.342 44.9604 52.2224 44.9604 52.1018C 44.9468 51.5686 44.9805 51.0618 45.0601 50.5818L 45.1001 50.2617C 45.3271 48.3953 45.9937 46.8206 47.1001 45.5417C 48.8604 43.3018 50.1401 41.675 50.9404 40.6619C 51.7935 39.5405 52.3271 37.3552 52.54 34.1006C 52.7534 31.1138 52.8604 28.8206 52.8604 27.2205C 52.8604 25.2471 52.4336 23.8071 51.5801 22.9004C 50.6201 21.8337 49.4468 21.3005 48.0601 21.3005C 47.8599 21.3005 47.6748 21.3081 47.5054 21.3235C 47.3589 21.3367 47.2236 21.3557 47.1001 21.3806C 46.9404 20.3152 46.4336 19.3538 45.5801 18.5005C 44.6733 17.5405 43.5269 17.0605 42.1401 17.0605L 41.9805 17.0605C 41.7676 17.0605 41.5615 17.0737 41.3623 17.1003C 41.1616 17.127 40.9678 17.167 40.7803 17.2205C 40.7134 17.2471 40.6538 17.2739 40.6001 17.3005C 40.3604 16.8337 40.0469 16.4072 39.6602 16.0205C 38.7002 15.0605 37.5537 14.5806 36.2202 14.5806C 35.8604 14.5806 35.5137 14.6138 35.1802 14.6804L 35.1802 6.90039C 35.1802 5.56714 34.7002 4.42041 33.7402 3.46045C 32.7803 2.50049 31.6338 2.01929 30.3003 2.01929C 29.5801 2.01929 28.9204 2.15381 28.3203 2.42041C 27.7734 2.6604 27.2871 3.00708 26.8604 3.46045C 25.9004 4.42041 25.4204 5.56714 25.4204 6.90039ZM 28.7002 5.38013C 29.127 4.95337 29.6602 4.74023 30.3003 4.74023C 30.5308 4.74023 30.7437 4.76782 30.9395 4.823C 31.1147 4.87231 31.2764 4.94409 31.4238 5.03784C 31.5693 5.13037 31.7017 5.24438 31.8203 5.38013C 32.0513 5.61108 32.2197 5.86548 32.3257 6.14331C 32.4155 6.37891 32.4604 6.6311 32.4604 6.90015L 32.4604 28.3401C 32.4604 28.7134 32.5938 29.0347 32.8604 29.3015C 33.127 29.5669 33.4468 29.7014 33.8203 29.7014C 34.1401 29.7014 34.4336 29.5669 34.7002 29.3015C 35.0205 29.0347 35.1802 28.7134 35.1802 28.3401L 35.1802 17.5415C 35.4868 17.3801 35.8335 17.3 36.2202 17.3C 36.8604 17.3 37.3667 17.5134 37.7402 17.9402C 38.167 18.3667 38.3804 18.8735 38.3804 19.4602L 38.4004 28.3401C 38.4004 28.5142 38.4292 28.677 38.4873 28.8284C 38.5537 29.0015 38.6582 29.1592 38.8003 29.3015C 39.0669 29.5669 39.3867 29.7014 39.7603 29.7014C 40.0801 29.7014 40.3735 29.5669 40.6401 29.3015C 40.9604 29.0347 41.1201 28.7134 41.1201 28.3401L 41.1201 22.9001L 41.1001 22.9001L 41.1001 20.02C 41.3667 19.8601 41.6602 19.78 41.9805 19.78L 42.1401 19.78C 42.7803 19.78 43.3135 19.9668 43.7402 20.3401C 44.167 20.7681 44.3804 21.2734 44.3804 21.8601L 44.3804 28.3401C 44.3804 28.7134 44.5137 29.0347 44.7803 29.3015C 44.8975 29.4182 45.0249 29.5095 45.1626 29.5754C 45.3384 29.6592 45.5308 29.7014 45.7402 29.7014C 46.0601 29.7014 46.3535 29.5669 46.6201 29.3015C 46.9404 29.0347 47.1001 28.7134 47.1001 28.3401L 47.1001 24.26C 47.2412 24.147 47.3979 24.064 47.5693 24.0107C 47.7212 23.9636 47.8848 23.9402 48.0601 23.9402C 48.7002 23.9402 49.207 24.1802 49.5801 24.6602C 49.9536 25.1934 50.167 26.0735 50.2202 27.3015C 50.2202 28.8481 50.1138 31.0601 49.9004 33.9402C 49.7402 36.5002 49.3403 38.208 48.7002 39.0601C 48.0068 40.0747 46.7534 41.6482 44.9404 43.7815C 43.2871 45.8481 42.4136 48.0947 42.3203 50.5215L 42.3003 50.7415L 31.1001 50.7415C 31.1001 50.6748 31.0938 50.6082 31.0801 50.5427C 31.0537 50.2881 31.0137 50.0347 30.9604 49.7815C 30.4268 46.9148 28.7671 44.5947 25.9805 42.8215C 24.4204 41.7415 23.3071 40.2202 22.6401 38.2615L 17.9805 24.2402C 17.7935 23.6802 17.8071 23.1401 18.0205 22.6201C 18.2871 22.0735 18.7202 21.7014 19.3203 21.5002C 19.5337 21.4348 19.7471 21.3936 19.9604 21.3801L 20.1201 21.3801C 20.4268 21.3936 20.7134 21.4802 20.9805 21.6401C 21.5269 21.9067 21.8936 22.3201 22.0801 22.8801L 25.5205 32.4614C 25.5869 32.6201 25.687 32.7681 25.8203 32.9014C 25.9746 33.0549 26.147 33.165 26.3369 33.2302C 26.4751 33.2776 26.623 33.3015 26.7803 33.3015C 26.9604 33.3015 27.1328 33.2588 27.2964 33.1736C 27.4229 33.1079 27.5439 33.0171 27.6602 32.9014C 27.9805 32.6348 28.1401 32.3147 28.1401 31.9402L 28.1401 6.90015C 28.1401 6.56689 28.2002 6.26001 28.3203 5.98022C 28.4136 5.76685 28.54 5.56689 28.7002 5.38013Z"/>
</defs>
</svg>
